<mxfile host="app.diagrams.net" modified="2023-03-24T15:23:22.953Z" agent="Mozilla/5.0 (Windows NT 10.0; Win64; x64) AppleWebKit/537.36 (KHTML, like Gecko) Chrome/109.0.0.0 Safari/537.36 OPR/95.0.0.0" version="21.1.1" etag="d6DvvrXt5MZnhywtsMuL" type="github">
  <diagram name="Sayfa -1" id="LkVKTy2XEU3WGaH5yODn">
    <mxGraphModel>
      <root>
        <mxCell id="0" />
        <mxCell id="1" parent="0" />
      </root>
    </mxGraphModel>
  </diagram>
</mxfile>
